<svg width="1920" height="997" xmlns="http://www.w3.org/2000/svg">
 <!-- Created with Method Draw - http://github.com/duopixel/Method-Draw/ -->
 <g>
  <title>background</title>
  <rect fill="#fff" id="canvas_background" height="999" width="1922" y="-1" x="-1"/>
  <g display="none" overflow="visible" y="0" x="0" height="100%" width="100%" id="canvasGrid">
   <rect fill="url(#gridpattern)" stroke-width="0" y="0" x="0" height="100%" width="100%"/>
  </g>
 </g>
 <g>
  <title>Layer 1</title>
  <path id="svg_7" d="m-218.99184,161.40858c571.99604,301.99791 643.99554,177.99877 1029.99287,317.9978c385.99733,139.99903 413.99714,367.99746 849.99412,289.998c435.99698,-77.99946 679.9953,81.99943 721.99501,-407.99718c41.99971,-489.99661 -27.99981,-669.99537 -287.99801,-701.99515c-259.9982,-31.99977 -1269.99122,-7.99994 -1270.99785,-7.40964c1.00663,-0.5903 -910.98706,95.40904 -909.99371,95.99933c-0.99335,-0.59029 -292.99133,-286.58832 -310.9912,51.40935c-17.99988,337.99766 -393.99728,59.99958 177.99877,361.99749z" stroke-opacity="null" stroke-width="0" stroke="#000" fill="#b3d8f9"/>
 </g>
</svg>